<svg width="24" height="24" fill="none" xmlns="http://www.w3.org/2000/svg"><path d="M7.953 21.14c-3.057-.01-5.698-1.682-6.966-4.85C-.28 13.12.11 9.163 1.744 5.614c3.057.01 5.698 1.681 6.966 4.85 1.267 3.168.878 7.126-.757 10.674Z" fill="#fff"/><path d="M7.953 21.14c-3.057-.01-5.698-1.682-6.966-4.85C-.28 13.12.11 9.163 1.744 5.614c3.057.01 5.698 1.681 6.966 4.85 1.267 3.168.878 7.126-.757 10.674Z" fill="url(#a)"/><path d="M7.953 21.14c-3.057-.01-5.698-1.682-6.966-4.85C-.28 13.12.11 9.163 1.744 5.614c3.057.01 5.698 1.681 6.966 4.85 1.267 3.168.878 7.126-.757 10.674Z" fill="#000" fill-opacity=".5" style="mix-blend-mode:hard-light"/><path d="M7.953 21.14c-3.057-.01-5.698-1.682-6.966-4.85C-.28 13.12.11 9.163 1.744 5.614c3.057.01 5.698 1.681 6.966 4.85 1.267 3.168.878 7.126-.757 10.674Z" fill="url(#b)" fill-opacity=".5" style="mix-blend-mode:hard-light"/><path d="M8.684 10.476c1.261 3.154.877 7.096-.749 10.635-3.038-.015-5.66-1.68-6.922-4.832-1.261-3.155-.877-7.097.749-10.636 3.038.016 5.661 1.68 6.922 4.833Z" stroke="url(#c)" stroke-opacity=".05" stroke-width=".056"/><path d="M7.31 21.257a13.8 13.8 0 0 0 9.319-8.02 13.765 13.765 0 0 0-.77-12.26 13.8 13.8 0 0 0-9.317 8.02 13.765 13.765 0 0 0 .768 12.26Z" fill="#fff"/><path d="M7.31 21.257a13.8 13.8 0 0 0 9.319-8.02 13.765 13.765 0 0 0-.77-12.26 13.8 13.8 0 0 0-9.317 8.02 13.765 13.765 0 0 0 .768 12.26Z" fill="url(#d)"/><path d="M16.603 13.225a13.772 13.772 0 0 1-9.279 8 13.737 13.737 0 0 1-.756-12.216 13.772 13.772 0 0 1 9.278-8 13.737 13.737 0 0 1 .757 12.216Z" stroke="url(#e)" stroke-opacity=".05" stroke-width=".056"/><path d="M7.234 21.207c2.555 2.03 5.976 2.744 9.343 1.607 3.367-1.137 5.929-3.87 7.153-7.176-2.555-2.03-5.976-2.744-9.343-1.607-3.367 1.137-5.929 3.87-7.153 7.176Z" fill="#fff"/><path d="M7.234 21.207c2.555 2.03 5.976 2.744 9.343 1.607 3.367-1.137 5.929-3.87 7.153-7.176-2.555-2.03-5.976-2.744-9.343-1.607-3.367 1.137-5.929 3.87-7.153 7.176Z" fill="url(#f)"/><path d="M7.234 21.207c2.555 2.03 5.976 2.744 9.343 1.607 3.367-1.137 5.929-3.87 7.153-7.176-2.555-2.03-5.976-2.744-9.343-1.607-3.367 1.137-5.929 3.87-7.153 7.176Z" fill="#000" fill-opacity=".2" style="mix-blend-mode:hard-light"/><path d="M7.234 21.207c2.555 2.03 5.976 2.744 9.343 1.607 3.367-1.137 5.929-3.87 7.153-7.176-2.555-2.03-5.976-2.744-9.343-1.607-3.367 1.137-5.929 3.87-7.153 7.176Z" fill="url(#g)" fill-opacity=".5" style="mix-blend-mode:hard-light"/><path d="M16.568 22.787c-3.35 1.131-6.754.425-9.3-1.59 1.224-3.29 3.776-6.008 7.128-7.14 3.35-1.13 6.754-.424 9.3 1.59-1.224 3.291-3.776 6.009-7.128 7.14Z" stroke="url(#h)" stroke-opacity=".05" stroke-width=".056"/><defs><linearGradient id="b" x1="7.39" y1="4.813" x2="1.63" y2="18.689" gradientUnits="userSpaceOnUse"><stop stop-color="#18E299"/><stop offset="1"/></linearGradient><linearGradient id="c" x1="7.948" y1="8.016" x2="1.761" y2="18.746" gradientUnits="userSpaceOnUse"><stop/><stop offset="1" stop-opacity="0"/></linearGradient><linearGradient id="e" x1="7.602" y1="5.871" x2="15.556" y2="16.372" gradientUnits="userSpaceOnUse"><stop/><stop offset="1" stop-opacity="0"/></linearGradient><linearGradient id="g" x1="16.808" y1="13.007" x2="10.041" y2="22.994" gradientUnits="userSpaceOnUse"><stop stop-color="#00B1BC"/><stop offset="1"/></linearGradient><linearGradient id="h" x1="16.808" y1="13.007" x2="14.169" y2="23.841" gradientUnits="userSpaceOnUse"><stop/><stop offset="1" stop-opacity="0"/></linearGradient><radialGradient id="a" cx="0" cy="0" r="1" gradientUnits="userSpaceOnUse" gradientTransform="rotate(-10.029 84.105 24.635) scale(17.9572 17.784)"><stop stop-color="#00B0BB"/><stop offset="1" stop-color="#00DB65"/></radialGradient><radialGradient id="d" cx="0" cy="0" r="1" gradientUnits="userSpaceOnUse" gradientTransform="rotate(-75.754 17.48 5.225) scale(21.6246 23.7772)"><stop stop-color="#0BB"/><stop offset=".713" stop-color="#00DB65"/></radialGradient><radialGradient id="f" cx="0" cy="0" r="1" gradientUnits="userSpaceOnUse" gradientTransform="matrix(17.4016 -6.45518 6.0238 16.23872 7.845 21.518)"><stop stop-color="#00B0BB"/><stop offset="1" stop-color="#00DB65"/></radialGradient></defs></svg>