<svg width="700" height="320" fill="none" xmlns="http://www.w3.org/2000/svg"><g clip-path="url(#a)"><rect width="700" height="320" rx="16" fill="url(#b)"/><path d="M311.889 247.3c-28.792-.085-53.663-15.834-65.597-45.671-11.935-29.836-8.272-67.106 7.122-100.517 28.792.085 53.663 15.833 65.597 45.67 11.935 29.837 8.272 67.106-7.122 100.518Z" fill="#fff"/><path d="M311.889 247.3c-28.792-.085-53.663-15.834-65.597-45.671-11.935-29.836-8.272-67.106 7.122-100.517 28.792.085 53.663 15.833 65.597 45.67 11.935 29.837 8.272 67.106-7.122 100.518Z" fill="url(#c)"/><path d="M311.889 247.3c-28.792-.085-53.663-15.834-65.597-45.671-11.935-29.836-8.272-67.106 7.122-100.517 28.792.085 53.663 15.833 65.597 45.67 11.935 29.837 8.272 67.106-7.122 100.518Z" fill="#000" fill-opacity=".5" style="mix-blend-mode:hard-light"/><path d="M311.889 247.3c-28.792-.085-53.663-15.834-65.597-45.671-11.935-29.836-8.272-67.106 7.122-100.517 28.792.085 53.663 15.833 65.597 45.67 11.935 29.837 8.272 67.106-7.122 100.518Z" fill="url(#d)" fill-opacity=".5" style="mix-blend-mode:hard-light"/><path d="M311.72 247.034c-28.612-.147-53.311-15.826-65.182-45.503-11.882-29.706-8.267-66.829 7.045-100.154 28.612.147 53.311 15.826 65.182 45.503 11.882 29.706 8.266 66.829-7.045 100.154Z" stroke="url(#e)" stroke-opacity=".05" stroke-width=".531"/><path d="M305.839 247.174c38.081-9.755 71.315-36.555 87.746-75.534 16.432-38.979 12.395-81.441-7.238-115.447-38.081 9.755-71.315 36.556-87.746 75.535-16.432 38.978-12.395 81.44 7.238 115.446Z" fill="#fff"/><path d="M305.839 247.174c38.081-9.755 71.315-36.555 87.746-75.534 16.432-38.979 12.395-81.441-7.238-115.447-38.081 9.755-71.315 36.556-87.746 75.535-16.432 38.978-12.395 81.44 7.238 115.446Z" fill="url(#f)"/><path d="M393.341 171.537c-16.37 38.832-49.451 65.554-87.372 75.33-19.507-33.908-23.493-76.204-7.124-115.036 16.37-38.833 49.45-65.554 87.372-75.33 19.507 33.907 23.493 76.203 7.124 115.036Z" stroke="url(#g)" stroke-opacity=".05" stroke-width=".531"/><path d="M305.686 246.995c24.064 19.119 56.279 25.837 87.985 15.134 31.705-10.703 55.828-36.438 67.359-67.573-24.063-19.119-56.279-25.837-87.984-15.134-31.706 10.703-55.829 36.438-67.36 67.573Z" fill="#fff"/><path d="M305.686 246.995c24.064 19.119 56.279 25.837 87.985 15.134 31.705-10.703 55.828-36.438 67.359-67.573-24.063-19.119-56.279-25.837-87.984-15.134-31.706 10.703-55.829 36.438-67.36 67.573Z" fill="url(#h)"/><path d="M305.686 246.995c24.064 19.119 56.279 25.837 87.985 15.134 31.705-10.703 55.828-36.438 67.359-67.573-24.063-19.119-56.279-25.837-87.984-15.134-31.706 10.703-55.829 36.438-67.36 67.573Z" fill="#000" fill-opacity=".2" style="mix-blend-mode:hard-light"/><path d="M305.686 246.995c24.064 19.119 56.279 25.837 87.985 15.134 31.705-10.703 55.828-36.438 67.359-67.573-24.063-19.119-56.279-25.837-87.984-15.134-31.706 10.703-55.829 36.438-67.36 67.573Z" fill="url(#i)" fill-opacity=".5" style="mix-blend-mode:hard-light"/><path d="M393.586 261.878c-31.551 10.651-63.605 4.002-87.584-14.971 11.533-30.988 35.569-56.58 67.128-67.234 31.552-10.65 63.606-4.002 87.585 14.971-11.533 30.988-35.569 56.58-67.129 67.234Z" stroke="url(#j)" stroke-opacity=".05" stroke-width=".531"/><g opacity=".8" filter="url(#k)"><circle cx="660" cy="-60" r="160" fill="#18E299" fill-opacity=".4"/></g><g opacity=".8" filter="url(#l)"><circle cx="20" cy="213" r="160" fill="#18E299" fill-opacity=".33"/></g><g opacity=".8" filter="url(#m)"><circle cx="660" cy="480" r="160" fill="#18E299" fill-opacity=".52"/></g><g opacity=".8" filter="url(#n)"><circle cx="20" cy="413" r="160" fill="#18E299" fill-opacity=".22"/></g><path d="M0 50h700M0 82h700M239 0v320M271 0v320M461 0v320" stroke="#000" stroke-dasharray="4 4" style="mix-blend-mode:overlay" opacity=".1"/><path d="M350 0v320" stroke="url(#o)" style="mix-blend-mode:overlay" opacity=".1"/><path d="M429 0v320M0 271h700M0 239h700" stroke="#000" stroke-dasharray="4 4" style="mix-blend-mode:overlay" opacity=".1"/><path d="M0 160h700" stroke="url(#p)" style="mix-blend-mode:overlay" opacity=".1"/><path d="M511-1 189 321" stroke="url(#q)" style="mix-blend-mode:overlay" opacity=".1"/><path d="M511 321 189-1" stroke="url(#r)" style="mix-blend-mode:overlay" opacity=".1"/><circle cx="350" cy="160" r="111" stroke="#000" style="mix-blend-mode:overlay" opacity=".05"/><circle cx="350" cy="160" r="79" stroke="#000" style="mix-blend-mode:overlay" opacity=".05"/></g><defs><linearGradient id="b" x1="0" y1="320" x2="710.784" y2="26.079" gradientUnits="userSpaceOnUse"><stop stop-color="#18E299" stop-opacity=".09"/><stop offset=".729" stop-color="#0D9373" stop-opacity=".08"/></linearGradient><linearGradient id="d" x1="306.587" y1="93.56" x2="252.341" y2="224.228" gradientUnits="userSpaceOnUse"><stop stop-color="#18E299"/><stop offset="1"/></linearGradient><linearGradient id="e" x1="311.84" y1="123.717" x2="253.579" y2="224.761" gradientUnits="userSpaceOnUse"><stop/><stop offset="1" stop-opacity="0"/></linearGradient><linearGradient id="g" x1="308.586" y1="102.284" x2="383.487" y2="201.169" gradientUnits="userSpaceOnUse"><stop/><stop offset="1" stop-opacity="0"/></linearGradient><linearGradient id="i" x1="395.843" y1="169.781" x2="332.121" y2="263.82" gradientUnits="userSpaceOnUse"><stop stop-color="#00B1BC"/><stop offset="1"/></linearGradient><linearGradient id="j" x1="395.843" y1="169.781" x2="370.991" y2="271.799" gradientUnits="userSpaceOnUse"><stop/><stop offset="1" stop-opacity="0"/></linearGradient><linearGradient id="o" x1="350" y1="0" x2="350" y2="320" gradientUnits="userSpaceOnUse"><stop stop-opacity="0"/><stop offset="0" stop-opacity=".3"/><stop offset=".333"/><stop offset=".667"/><stop offset="1" stop-opacity=".3"/></linearGradient><linearGradient id="p" x1="0" y1="160" x2="700" y2="160" gradientUnits="userSpaceOnUse"><stop stop-opacity=".1"/><stop offset=".5"/><stop offset="1" stop-opacity=".1"/></linearGradient><linearGradient id="q" x1="511" y1="-1" x2="189" y2="321" gradientUnits="userSpaceOnUse"><stop stop-opacity=".1"/><stop offset=".5"/><stop offset="1" stop-opacity=".1"/></linearGradient><linearGradient id="r" x1="511" y1="321" x2="189" y2="-1" gradientUnits="userSpaceOnUse"><stop stop-opacity=".1"/><stop offset=".5"/><stop offset="1" stop-opacity=".1"/></linearGradient><filter id="k" x="260" y="-460" width="800" height="800" filterUnits="userSpaceOnUse" color-interpolation-filters="sRGB"><feFlood flood-opacity="0" result="BackgroundImageFix"/><feBlend in="SourceGraphic" in2="BackgroundImageFix" result="shape"/><feGaussianBlur stdDeviation="120" result="effect1_foregroundBlur_2862_278"/></filter><filter id="l" x="-380" y="-187" width="800" height="800" filterUnits="userSpaceOnUse" color-interpolation-filters="sRGB"><feFlood flood-opacity="0" result="BackgroundImageFix"/><feBlend in="SourceGraphic" in2="BackgroundImageFix" result="shape"/><feGaussianBlur stdDeviation="120" result="effect1_foregroundBlur_2862_278"/></filter><filter id="m" x="260" y="80" width="800" height="800" filterUnits="userSpaceOnUse" color-interpolation-filters="sRGB"><feFlood flood-opacity="0" result="BackgroundImageFix"/><feBlend in="SourceGraphic" in2="BackgroundImageFix" result="shape"/><feGaussianBlur stdDeviation="120" result="effect1_foregroundBlur_2862_278"/></filter><filter id="n" x="-380" y="13" width="800" height="800" filterUnits="userSpaceOnUse" color-interpolation-filters="sRGB"><feFlood flood-opacity="0" result="BackgroundImageFix"/><feBlend in="SourceGraphic" in2="BackgroundImageFix" result="shape"/><feGaussianBlur stdDeviation="120" result="effect1_foregroundBlur_2862_278"/></filter><radialGradient id="c" cx="0" cy="0" r="1" gradientUnits="userSpaceOnUse" gradientTransform="matrix(166.51315 -29.44767 29.16364 164.90708 208.697 189.703)"><stop stop-color="#00B0BB"/><stop offset="1" stop-color="#00DB65"/></radialGradient><radialGradient id="f" cx="0" cy="0" r="1" gradientUnits="userSpaceOnUse" gradientTransform="matrix(50.1109 -197.36993 217.01659 55.09906 313.405 243.64)"><stop stop-color="#0BB"/><stop offset=".713" stop-color="#00DB65"/></radialGradient><radialGradient id="h" cx="0" cy="0" r="1" gradientUnits="userSpaceOnUse" gradientTransform="matrix(163.86495 -60.78591 56.72369 152.91412 311.447 249.925)"><stop stop-color="#00B0BB"/><stop offset="1" stop-color="#00DB65"/></radialGradient><clipPath id="a"><rect width="700" height="320" rx="16" fill="#fff"/></clipPath></defs></svg>